<svg id="Layer_1" data-name="Layer 1" xmlns="http://www.w3.org/2000/svg" viewBox="0 0 911.84 222.86"><defs><style>.cls-1{fill:#fff;}</style></defs><title>iDivalogo</title><path d="M49,10.5h57.3c59.1,0,92.4,36.6,92.4,99.3,0,64.2-27.6,110.1-93.6,110.1H49V10.5Zm6,204h48.9c57.9,0,88.5-37.5,88.5-104.4,0-60-31.5-94.2-87.6-94.2H55V214.5Z"/><path d="M242.75,25.5V0h6V25.5h-6Zm0,45h6V219.9h-6V70.5Z"/><path d="M286.85,70.5c29.7,81,48.3,131.7,51.9,142.8H339c4.2-14.1,32.7-86.7,53.4-142.8h6.3L342,219.9h-6.9L280.85,70.5h6Z"/><path d="M516.34,188.4a264.25,264.25,0,0,0,1.5,31.5h-5.7c-0.6-6-1.8-11.1-1.5-31.5-7.5,24-24.9,33.9-51,33.9-33.9,0-45.6-23.7-45.6-42,0-31.5,23.7-45,62.1-45h34.2V113.7c0-15-2.4-40.5-40.2-40.5-30.3,0-39,16.2-42,34.5h-6c2.1-16.5,10.5-40.2,48.6-40.2,37.2,0,45.6,21.6,45.6,43.8v77.1Zm-6-47.7h-34.2c-31.5,0-55.8,9.3-55.8,39,0,21,15.3,36.9,39.6,36.9,30.3,0,50.4-15.9,50.4-56.1V140.7Z"/><circle class="cls-1" cx="572.64" cy="203.15" r="16.75"/><rect class="cls-1" x="614.14" y="195.45" width="27.41" height="27.41"/><rect class="cls-1" x="614.14" y="5.81" width="27.41" height="27.41"/><rect class="cls-1" x="614.14" y="43.74" width="27.41" height="27.41"/><rect class="cls-1" x="614.14" y="81.67" width="27.41" height="27.41"/><rect class="cls-1" x="614.14" y="119.59" width="27.41" height="27.41"/><rect class="cls-1" x="614.14" y="157.52" width="27.41" height="27.41"/><rect class="cls-1" x="649.43" y="195.45" width="27.41" height="27.41"/><rect class="cls-1" x="649.43" y="5.81" width="27.41" height="27.41"/><rect class="cls-1" x="649.43" y="43.74" width="27.41" height="27.41"/><rect class="cls-1" x="649.43" y="81.67" width="27.41" height="27.41"/><rect class="cls-1" x="649.43" y="119.59" width="27.41" height="27.41"/><rect class="cls-1" x="649.43" y="157.52" width="27.41" height="27.41"/><rect class="cls-1" x="777.28" y="195.45" width="27.41" height="27.41"/><rect class="cls-1" x="777.28" y="5.81" width="27.41" height="27.41"/><rect class="cls-1" x="741.56" y="5.81" width="27.41" height="27.41"/><rect class="cls-1" x="848.72" y="5.81" width="27.41" height="27.41"/><rect class="cls-1" x="884.43" y="5.81" width="27.41" height="27.41"/><rect class="cls-1" x="705.84" y="5.81" width="27.41" height="27.41"/><rect class="cls-1" x="777.28" y="43.74" width="27.41" height="27.41"/><rect class="cls-1" x="777.28" y="81.67" width="27.41" height="27.41"/><rect class="cls-1" x="777.28" y="119.59" width="27.41" height="27.41"/><rect class="cls-1" x="777.28" y="157.52" width="27.41" height="27.41"/><rect class="cls-1" x="813" y="195.45" width="27.41" height="27.41"/><rect class="cls-1" x="813" y="5.81" width="27.41" height="27.41"/><rect class="cls-1" x="813" y="43.74" width="27.41" height="27.41"/><rect class="cls-1" x="813" y="81.67" width="27.41" height="27.41"/><rect class="cls-1" x="813" y="119.59" width="27.41" height="27.41"/><rect class="cls-1" x="813" y="157.52" width="27.41" height="27.41"/><path class="cls-1" d="M0,30.3V1.2H14.7V30.3H0ZM0,69.9H14.7v150H0V69.9Z"/></svg>